<?xml version="1.0" encoding="UTF-8"?>
<svg id="Layer_1" xmlns="http://www.w3.org/2000/svg" version="1.1" viewBox="0 0 210 208">
  <!-- Generator: Adobe Illustrator 30.3.0, SVG Export Plug-In . SVG Version: 2.1.3 Build 182)  -->
  <defs>
    <style>
      .st0 {
        fill: #ff6c37;
      }

      .st1 {
        fill: #fff;
      }
    </style>
  </defs>
  <circle class="st1" cx="105.5" cy="103.1" r="87.3"/>
  <g>
    <path class="st1" d="M106,190.4c48.8,0,88.3-39.5,88.3-88.3S154.8,13.8,106,13.8,17.7,53.3,17.7,102.1s39.5,88.3,88.3,88.3h0Z"/>
    <path class="st0" d="M160.9,54.3c-.1,0-.2.2-.3.3-.1,0-.2.2-.2.4v.4c0,.2,0,.3.1.4.3.6.4,1.2.3,1.9,0,.7-.3,1.2-.8,1.8,0,.1-.2.2-.2.4v.4c0,.1,0,.3.1.4,0,.1.1.2.3.3.1,0,.2.2.4.2h.4c.1,0,.3,0,.4-.1.1,0,.2-.2.3-.3.7-.8,1.1-1.8,1.2-2.9.1-1.1,0-2.2-.5-3.1,0-.1-.1-.2-.3-.3-.1,0-.2-.2-.4-.2h-.4c-.1,0-.3,0-.4.1h0v-.1Z"/>
    <path class="st0" d="M118.2,6.9C65.7.2,17.6,37.3,10.9,89.9c-6.8,52.6,30.4,100.6,82.9,107.3,52.6,6.8,100.6-30.4,107.4-82.9,6.8-52.5-30.4-100.6-82.9-107.3h0l-.1-.1ZM138,66.8c-1.8,0-3.5.8-4.7,2l-35.6,35.6-7.6-7.6c35.1-35,41.4-35.3,47.9-30h0ZM99.1,105.7l35.5-35.5c.9-.9,2.2-1.4,3.5-1.4s2.6.5,3.5,1.4c.5.5.9,1.1,1.1,1.7s.4,1.3.3,2c0,.7-.2,1.3-.5,1.9s-.7,1.2-1.2,1.6l-37.6,33-4.7-4.7h.1ZM101.7,111.2l-8.8,1.9h-.3c-.1,0-.2-.1-.2-.2v-.3s0-.2.1-.3l5.2-5.2,4.1,4.1h-.1ZM79.3,107.5l9.4-9.4,7,7-15.8,3.4h-.4c-.1,0-.2-.2-.3-.3v-.4c0-.1,0-.2.2-.4h0l-.1.1ZM50.2,156c-.1,0-.2,0-.3-.1,0,0-.2-.2-.2-.3v-.3c0-.1,0-.2.2-.3l7.6-7.6,9.8,9.8-17-1.2h-.1ZM69.6,145.9h0c-.4.2-.6.5-.8.9s-.2.8-.1,1.2l1.6,6.9v.6c0,.2-.2.4-.4.5s-.4.1-.6.1-.4-.1-.6-.3l-9.8-9.8,30.1-30.1,14.6-3.1,7,7c-10,8.8-23.8,17.6-40.8,26.1h-.2ZM111.8,118.5l-6.7-6.7,37.6-33c.4-.3.7-.7.9-1-1.2,10.8-16.2,26-31.8,40.7h0ZM141,66.8c-2.6-2.7-4.2-6.2-4.2-10s1.3-7.4,3.8-10.1c2.5-2.8,6-4.5,9.8-4.7,3.7-.2,7.4,1,10.3,3.3l-12.9,12.9c-.2.2-.3.4-.3.7s.1.5.3.7l10,10c-2.7,1.4-5.8,1.8-8.8,1.3s-5.8-1.9-7.9-4.1h-.1ZM161.6,66.8c-.7.7-1.4,1.2-2.2,1.8l-9.6-9.7,12.3-12.3c2.5,2.8,3.9,6.4,3.8,10.2,0,3.8-1.6,7.3-4.3,10h0Z"/>
  </g>
</svg>