<?xml version="1.0" encoding="UTF-8"?>
<svg id="Layer_1" xmlns="http://www.w3.org/2000/svg" version="1.1" viewBox="0 0 381.5 115">
  <!-- Generator: Adobe Illustrator 29.8.2, SVG Export Plug-In . SVG Version: 2.1.1 Build 3)  -->
  <defs>
    <style>
      .st0 {
        fill: #ff6c37;
      }

      .st1 {
        fill: #fff;
      }
    </style>
  </defs>
  <circle class="st1" cx="57.1" cy="58.1" r="51.4"/>
  <g>
    <path class="st1" d="M57.8,110.2c28.7,0,52-23.3,52-52S86.5,6.2,57.8,6.2,5.8,29.4,5.8,58.2s23.3,52,52,52Z"/>
    <path class="st0" d="M89.7,29.4s-.2,0-.2.2c0,0,0,.1,0,.2s0,.2,0,.2v.2c.2.3.2.7.2,1.1s-.2.7-.4,1c0,0,0,0,0,.2v.4s0,0,.2.2c0,0,0,0,.2,0h.4s0,0,.2-.2c.4-.5.7-1.1.7-1.7s0-1.3-.3-1.8c0,0,0-.1-.2-.2,0,0,0-.1-.2-.1h-.4v.2Z"/>
    <path class="st0" d="M64.5,1.5C33.6-2.5,5.3,19.4,1.3,50.3c-4,31,17.9,59.3,48.8,63.2,31,4,59.3-17.9,63.2-48.8,4-31-17.9-59.3-48.8-63.2ZM76.2,36.7c-1.1,0-2.1.4-2.8,1.2l-21,21-4.5-4.5c20.7-20.6,24.4-20.8,28.2-17.7h.1ZM53.3,59.6l20.9-20.9c.6-.5,1.3-.8,2.1-.8s1.5.3,2.1.8c.3.3.5.6.7,1s.2.8.2,1.2,0,.8-.3,1.2-.4.7-.7.9l-22.1,19.4-2.8-2.8h0ZM54.8,62.9l-5.2,1.1h-.3v-.5l3-3,2.4,2.4h0ZM41.6,60.7l5.5-5.5,4.1,4.1-9.3,2h-.2s0,0-.2-.2v-.4h.1ZM24.5,89.2h-.2v-.2c-.1,0-.1,0-.1-.2s0,0,.1-.2l4.5-4.4,5.8,5.8-10-.7h0ZM35.9,83.3h0c-.2,0-.4.3-.5.5s0,.5,0,.7l1,4.1v.4c0,0,0,.2-.2.3h-.4q-.2,0-.3-.2l-5.8-5.8,17.7-17.7,8.6-1.8,4.1,4.1c-5.9,5.2-14,10.3-24,15.4h-.2ZM60.7,67.2l-4-4,22.1-19.4c.2-.2.4-.4.6-.6-.7,6.3-9.6,15.3-18.7,24ZM77.9,36.8c-1.6-1.6-2.4-3.7-2.5-5.9,0-2.2.8-4.3,2.2-6s3.6-2.6,5.8-2.8,4.4.6,6.1,2l-7.6,7.6c0,.1-.2.2-.2.4s0,.3.2.4l5.9,5.9c-1.6.8-3.4,1.1-5.2.8-1.8-.3-3.4-1.1-4.7-2.4h0ZM90.1,36.8c-.4.4-.8.7-1.3,1l-5.7-5.7,7.2-7.2c1.5,1.6,2.3,3.8,2.2,6,0,2.2-.9,4.3-2.5,5.9h.1Z"/>
  </g>
  <g>
    <path class="st1" d="M156.9,40c-1.6-.7-3.5-1.1-5.5-1.1h-9.4c-.6,0-1.1.2-1.4.5-.4.3-.6.8-.6,1.3v33.4c0,.6.3,1.1.9,1.5.5.3,1,.4,1.6.4s1.1,0,1.6-.4c.6-.3.8-.8.8-1.5v-12.5h6.3c2.1,0,4-.4,5.6-1.1,1.7-.7,3.1-2,4-3.6,1-1.6,1.5-3.8,1.5-6.5v-.4c0-2.7-.5-4.9-1.4-6.5-1-1.6-2.3-2.8-4-3.6h0ZM144.8,43.4h6.3c1.9,0,3.5.5,4.6,1.6s1.6,2.8,1.6,5.1v.6c0,2.3-.5,4-1.6,5-1.1,1.1-2.6,1.6-4.6,1.6h-6.3s0-13.9,0-13.9Z"/>
    <path class="st1" d="M191.8,40c-1.7-.7-3.6-1.1-5.6-1.1s-4,.4-5.6,1.1c-1.7.7-3,2-4,3.6s-1.5,3.8-1.5,6.5v15c0,2.7.5,4.9,1.5,6.5s2.3,2.8,4,3.6c1.7.7,3.5,1.1,5.6,1.1s4-.4,5.6-1.1c1.7-.7,3.1-2,4-3.6,1-1.6,1.5-3.8,1.5-6.5v-15c0-2.7-.5-4.9-1.5-6.5s-2.3-2.8-4-3.6ZM186.2,43.4c1.9,0,3.5.5,4.6,1.6s1.6,2.8,1.6,5.1v15c0,2.3-.5,4-1.6,5.1s-2.6,1.6-4.6,1.6-3.5-.5-4.5-1.6c-1.1-1.1-1.6-2.8-1.6-5.1v-15c0-2.3.5-4,1.6-5.1s2.6-1.6,4.5-1.6Z"/>
    <path class="st1" d="M229.1,57.4c-1-.8-2.1-1.5-3.3-2.1-1.2-.5-2.3-1-3.5-1.5-1.1-.4-2.2-.9-3.1-1.3-.9-.5-1.7-1.1-2.2-1.8s-.8-1.6-.8-2.7.3-2.1.8-2.8c.6-.7,1.3-1.2,2.3-1.5s2.1-.5,3.2-.5,2.5.2,3.3.4c.9.3,1.5.6,2,.9.6.4,1.1.5,1.5.5s.9-.2,1.3-.5c.3-.3.5-.7.7-1.1.2-.4.2-.7.2-1.1,0-.7-.3-1.3-1-1.8-.6-.4-1.4-.8-2.3-1.1-.9-.3-1.9-.5-2.9-.6s-2-.2-2.9-.2-2.5,0-3.8.4c-1.3.3-2.6.8-3.7,1.5-1.1.7-2.1,1.7-2.8,3-.7,1.2-1,2.8-1,4.7s.3,3.3.9,4.5c.6,1.2,1.4,2.1,2.5,2.9,1,.7,2.1,1.3,3.3,1.8s2.3,1,3.5,1.4c1.1.5,2.2,1,3.1,1.6.9.6,1.7,1.3,2.2,2.1.6.8.8,1.9.8,3.3s-.3,2.4-.8,3.2c-.5.8-1.3,1.5-2.2,1.9-1,.4-2.1.6-3.5.6s-2.6-.2-3.5-.6-1.6-.8-2.2-1.3c-.6-.5-1.1-1-1.4-1.4-.5-.5-.9-.7-1.5-.7s-.8.2-1.1.5-.6.6-.8,1-.3.8-.3,1.2c0,.8.5,1.7,1.4,2.6s2.2,1.7,3.8,2.4c1.6.7,3.6,1,5.7,1s4.1-.4,5.8-1.2c1.7-.8,3-2,4-3.6s1.5-3.7,1.5-6.1-.3-3.6-.9-5c-.6-1.3-1.5-2.4-2.5-3.2l.2.3Z"/>
    <path class="st1" d="M265.1,38.9h-20.3c-.6,0-1.1.3-1.4.8-.3.5-.4,1-.4,1.5s.2,1.1.5,1.6.8.8,1.4.8h7.7v30.6c0,.6.3,1.1.8,1.5.5.3,1,.4,1.6.4s1.1,0,1.6-.4c.6-.3.8-.8.8-1.5v-30.6h7.7c.6,0,1.1-.3,1.4-.8s.4-1,.4-1.6-.1-1-.4-1.5-.8-.8-1.4-.8Z"/>
    <path class="st1" d="M305.9,39.4c-.5-.3-1.1-.5-1.7-.5s-1.1,0-1.5.3-.8.5-1.2,1c-.3.4-.7.9-1,1.5l-7.5,14.3-7.5-14.3c-.3-.6-.6-1.1-1-1.5-.3-.4-.7-.7-1.2-1-.4-.2-1-.3-1.5-.3s-1.1.2-1.6.5c-.6.4-.8,1-.8,1.9v32.8c0,.6.3,1.1.9,1.5.5.3,1,.4,1.6.4s1.1,0,1.6-.4c.6-.3.8-.8.8-1.5v-24.7l6.8,12.9c.3.5.6.8.9,1s.7.3,1,.3.7,0,1.1-.3c.3-.2.6-.6.9-1l6.8-12.8v24.6c0,.6.3,1.1.8,1.5.5.3,1,.4,1.6.4s1.1,0,1.6-.4c.6-.3.8-.8.8-1.5v-32.8c0-.9-.3-1.5-.8-1.9h.1Z"/>
    <path class="st1" d="M335.4,40.3c-.2-.6-.5-1-1.1-1.3s-1.2-.4-1.8-.4-1.2,0-1.8.4c-.6.3-1,.7-1.2,1.3l-10.2,33.1h0v.5c0,.4.2.8.5,1.2.3.3.7.6,1.1.7.5.2.9.2,1.3.2s.9,0,1.2-.3c.4-.2.6-.5.8-1l2.1-7.1h12.5l2.2,7.1c.1.4.4.8.7,1,.3.2.7.3,1.1.3s.9,0,1.3-.3c.4-.2.8-.4,1.1-.7.4-.3.5-.7.5-1.2s0-.3-.1-.5l-10.1-33.1h-.1ZM327.4,63.5l5-17,5,17h-10.1.1Z"/>
    <path class="st1" d="M379.9,39.3c-.5-.3-1-.4-1.6-.4s-1.1,0-1.6.4c-.6.3-.9.8-.9,1.4v23.8l-11.6-22.8c-.3-.6-.6-1.1-.9-1.5s-.7-.7-1.1-1c-.4-.2-.9-.3-1.5-.3s-1.1,0-1.6.4c-.6.3-.9.8-.9,1.5v33.4c0,.6.3,1.1.9,1.5.5.3,1,.4,1.6.4s1.1,0,1.6-.4c.6-.3.8-.8.8-1.5v-23.8l12.3,23.6c.3.6.7,1.1,1.2,1.5s1.1.6,1.7.6,1.1,0,1.6-.4c.6-.3.8-.8.8-1.5v-33.4c0-.6-.3-1.1-.9-1.4h.1Z"/>
  </g>
</svg>