<?xml version="1.0" encoding="UTF-8"?>
<svg id="Layer_1" data-name="Layer 1" xmlns="http://www.w3.org/2000/svg" viewBox="0 0 360 288">
  <defs>
    <style>
      .cls-1 {
        fill: #ff6c37;
      }

      .cls-2 {
        fill: #fff;
      }
    </style>
  </defs>
  <g>
    <path d="M51.47,236.54c-2.03-.91-4.35-1.37-6.88-1.37h-11.69s-.03,0-.03,0c-.72.05-1.33.27-1.8.67-.5.42-.76.97-.76,1.61v41.55c0,.81.36,1.42,1.08,1.82.63.35,1.3.52,2,.52.74,0,1.43-.18,2.04-.53.69-.4,1.05-1.01,1.05-1.81v-15.53h7.86c2.57,0,4.93-.46,7-1.37,2.1-.92,3.79-2.42,5.01-4.46,1.22-2.02,1.83-4.74,1.83-8.07v-.56c0-3.33-.61-6.03-1.8-8.04-1.2-2.02-2.86-3.51-4.92-4.43ZM36.48,240.84h7.86c2.41,0,4.31.67,5.66,1.99,1.34,1.32,2.02,3.44,2.02,6.3v.74c0,2.82-.68,4.93-2.02,6.27-1.34,1.34-3.24,2.02-5.65,2.02h-7.86v-17.33Z"/>
    <path d="M94.87,236.54c-2.07-.91-4.43-1.37-7-1.37s-4.91.46-6.97,1.37c-2.08.92-3.76,2.42-4.98,4.46-1.22,2.03-1.83,4.76-1.83,8.13v18.61c0,3.37.62,6.11,1.83,8.13,1.22,2.04,2.9,3.54,4.98,4.46,2.05.91,4.39,1.37,6.97,1.37s4.93-.46,7-1.37c2.1-.92,3.79-2.42,5.01-4.46,1.22-2.02,1.83-4.76,1.83-8.13v-18.61c0-3.37-.62-6.11-1.83-8.13-1.22-2.04-2.91-3.54-5.01-4.46ZM87.87,240.84c2.41,0,4.31.67,5.66,1.99,1.34,1.32,2.02,3.44,2.02,6.3v18.61c0,2.86-.68,4.98-2.02,6.3-1.34,1.32-3.25,1.99-5.66,1.99s-4.3-.67-5.62-1.99c-1.32-1.32-1.99-3.44-1.99-6.3v-18.61c0-2.86.67-4.98,1.99-6.3,1.32-1.32,3.21-1.99,5.62-1.99Z"/>
    <path d="M141.26,258.16c-1.24-1.01-2.62-1.87-4.09-2.57-1.45-.68-2.92-1.29-4.37-1.81-1.41-.5-2.72-1.07-3.9-1.67-1.13-.58-2.05-1.33-2.75-2.22-.67-.86-1.01-1.98-1.01-3.35,0-1.45.35-2.61,1.04-3.47.7-.87,1.66-1.5,2.86-1.88,1.25-.4,2.6-.6,4.03-.6,1.71,0,3.1.19,4.13.56,1.06.38,1.92.76,2.54,1.13.74.44,1.37.66,1.92.66.63,0,1.17-.23,1.59-.68.37-.39.65-.84.84-1.34.19-.49.28-.93.28-1.32,0-.86-.42-1.61-1.25-2.22-.74-.55-1.71-1-2.87-1.34-1.13-.33-2.34-.59-3.6-.76-1.26-.17-2.46-.25-3.59-.25-1.55,0-3.16.18-4.77.54-1.64.36-3.18,1-4.58,1.89-1.42.91-2.58,2.15-3.44,3.7-.86,1.55-1.3,3.52-1.3,5.86,0,2.21.39,4.08,1.17,5.54.77,1.46,1.8,2.67,3.05,3.59,1.22.91,2.6,1.68,4.09,2.29,1.46.6,2.91,1.19,4.33,1.76,1.39.57,2.7,1.22,3.89,1.94,1.15.7,2.09,1.59,2.79,2.64.68,1.03,1.03,2.39,1.03,4.06s-.34,2.99-1.01,4.04c-.66,1.04-1.6,1.84-2.78,2.35-1.21.53-2.66.79-4.32.79-1.78,0-3.23-.24-4.32-.7-1.1-.47-2-1.03-2.67-1.67-.72-.67-1.31-1.26-1.78-1.74-.57-.59-1.17-.89-1.8-.89-.49,0-.96.2-1.4.59-.39.35-.72.77-.97,1.25-.26.5-.4,1-.4,1.49,0,.99.59,2.1,1.75,3.28,1.11,1.13,2.71,2.13,4.74,2.95,2.03.82,4.42,1.24,7.11,1.24s5.12-.48,7.19-1.44c2.1-.96,3.78-2.46,5-4.45,1.22-1.99,1.83-4.54,1.83-7.58,0-2.45-.39-4.53-1.16-6.17-.77-1.65-1.8-3-3.07-4.04Z"/>
    <path d="M186,235.17h-25.23c-.8,0-1.4.33-1.78.98-.33.57-.5,1.19-.5,1.85,0,.76.19,1.43.58,2,.42.64,1,.96,1.7.96h9.53v38.03c0,.8.35,1.41,1.05,1.81.61.35,1.29.53,2.04.53s1.43-.18,2.04-.53c.69-.4,1.05-1.01,1.05-1.81v-38.03h9.53c.8,0,1.4-.34,1.78-1.02.33-.59.49-1.24.49-1.94,0-.66-.17-1.28-.5-1.85-.38-.65-.98-.98-1.78-.98Z"/>
    <path d="M236.58,235.82c-.6-.43-1.31-.65-2.11-.65-.7,0-1.32.14-1.86.43-.53.28-1.02.68-1.45,1.2-.41.5-.83,1.14-1.26,1.91l-9.34,17.79-9.33-17.78c-.38-.77-.79-1.41-1.2-1.92-.43-.52-.92-.93-1.45-1.2-.54-.28-1.19-.43-1.93-.43s-1.4.21-2.03.64c-.7.46-1.05,1.27-1.05,2.38v40.81c0,.81.37,1.42,1.08,1.82.63.35,1.3.52,2,.52.74,0,1.43-.18,2.04-.53.69-.4,1.05-1.01,1.05-1.81v-30.73l8.42,16.06c.33.61.71,1.05,1.14,1.3.42.25.83.38,1.21.38.47,0,.92-.14,1.33-.43.39-.27.75-.69,1.08-1.25l8.48-15.85v30.52c0,.8.35,1.41,1.05,1.81.61.35,1.29.53,2.04.53s1.43-.18,2.04-.53c.69-.4,1.05-1.01,1.05-1.81v-40.81c0-1.11-.33-1.91-.98-2.37Z"/>
    <path d="M273.27,236.95c-.2-.71-.68-1.26-1.42-1.63-.68-.34-1.44-.52-2.26-.52-.77,0-1.5.16-2.18.48-.75.35-1.24.91-1.43,1.66l-12.68,41.12v.02c-.06.2-.08.41-.08.61,0,.54.2,1.02.59,1.44.36.39.84.69,1.43.9.57.2,1.09.31,1.56.31.57,0,1.08-.11,1.5-.33.47-.25.79-.65.95-1.19l2.56-8.86h15.53l2.68,8.87c.16.54.47.93.91,1.18.4.23.88.34,1.41.34s1.06-.12,1.61-.35c.55-.23,1.02-.53,1.41-.9.45-.42.68-.92.68-1.47,0-.19-.05-.39-.16-.61l-12.6-41.07ZM263.32,265.72l6.27-21.06,6.27,21.06h-12.55Z"/>
    <path d="M328.62,235.66c-.61-.33-1.29-.49-2.02-.49-.69,0-1.36.16-1.99.49-.72.37-1.1.99-1.1,1.79v29.57l-14.41-28.3c-.38-.77-.78-1.41-1.17-1.91-.41-.52-.88-.93-1.39-1.21-.52-.29-1.16-.43-1.9-.43-.69,0-1.35.15-1.97.45-.73.35-1.11.98-1.11,1.83v41.55c0,.81.37,1.42,1.08,1.82.63.35,1.3.52,2,.52.74,0,1.43-.18,2.04-.53.69-.4,1.05-1.01,1.05-1.81v-29.6l15.23,29.35c.4.71.91,1.32,1.51,1.81.64.52,1.36.79,2.13.79s1.43-.18,2.04-.53c.69-.4,1.05-1.01,1.05-1.81v-41.55c0-.8-.37-1.41-1.06-1.79Z"/>
  </g>
  <g>
    <circle class="cls-2" cx="179.52" cy="103.1" r="87.25"/>
    <g>
      <path class="cls-2" d="M180,190.38c48.76,0,88.28-39.52,88.28-88.28S228.76,13.81,180,13.81s-88.28,39.52-88.28,88.28,39.52,88.28,88.28,88.28Z"/>
      <path class="cls-1" d="M234.88,54.29c-.14.07-.25.15-.34.27-.1.1-.17.24-.22.37s-.07.29-.05.42c0,.15.05.29.12.42.29.58.41,1.22.32,1.87-.07.65-.34,1.24-.75,1.75-.08.12-.17.24-.2.37-.05.14-.05.29-.05.42,0,.15.05.29.12.41.07.14.15.24.27.34.12.08.24.17.37.2.14.05.29.05.42.05.15,0,.29-.05.41-.12.14-.07.24-.15.34-.27.68-.83,1.12-1.83,1.24-2.9.12-1.07-.07-2.16-.54-3.11-.07-.14-.15-.25-.27-.34-.1-.1-.24-.17-.37-.22-.14-.05-.29-.07-.42-.05-.15,0-.29.05-.42.12l.03-.02Z"/>
      <path class="cls-1" d="M192.22,6.95C139.67.21,91.61,37.34,84.87,89.89c-6.76,52.55,30.37,100.61,82.92,107.35,52.55,6.76,100.61-30.39,107.35-82.94,6.76-52.55-30.37-100.61-82.92-107.35ZM211.96,66.8c-1.78.02-3.48.75-4.74,2l-35.6,35.59-7.59-7.59c35.06-34.99,41.39-35.33,47.93-30ZM173.08,105.66l35.5-35.5c.93-.93,2.19-1.44,3.5-1.44s2.56.53,3.5,1.44c.48.48.85,1.05,1.1,1.68s.37,1.31.34,1.99c-.02.68-.19,1.34-.48,1.95s-.7,1.15-1.21,1.6l-37.55,32.99s-4.7-4.7-4.7-4.7ZM175.71,111.2l-8.79,1.9c-.1.03-.22.02-.31-.02-.1-.05-.17-.12-.22-.22-.05-.08-.08-.2-.07-.31,0-.1.07-.2.15-.27l5.16-5.16,4.09,4.09-.02-.02ZM153.3,107.53l9.37-9.37,7.03,7.03-15.82,3.4c-.14.03-.27,0-.39-.05s-.22-.15-.29-.27c-.07-.12-.08-.25-.07-.39.02-.14.08-.25.17-.36h0v.02ZM124.17,155.97c-.12,0-.22-.05-.31-.14-.08-.07-.15-.17-.19-.27-.03-.1-.05-.22-.02-.34s.08-.22.17-.29l7.56-7.56,9.76,9.76-16.98-1.17ZM143.56,145.92h0c-.36.19-.65.49-.81.87s-.22.78-.12,1.19l1.63,6.93c.05.22.03.44-.07.63-.08.2-.24.36-.42.48-.19.1-.41.15-.63.12s-.42-.14-.58-.29l-9.81-9.81,30.07-30.07,14.55-3.12,6.98,6.98c-10.03,8.78-23.75,17.57-40.76,26.11h-.02ZM185.75,118.51c-.83-.83-2.67-2.67-6.71-6.71l37.55-32.99c.36-.31.66-.65.95-1.02-1.19,10.78-16.23,25.96-31.8,40.71ZM214.98,66.85c-2.65-2.65-4.16-6.23-4.23-9.97-.08-3.75,1.29-7.37,3.82-10.14,2.53-2.77,6.03-4.45,9.76-4.7,3.74-.25,7.42.95,10.31,3.34l-12.9,12.89c-.19.19-.27.42-.27.68s.1.49.27.68l9.97,9.97c-2.73,1.36-5.81,1.82-8.81,1.32-3.01-.49-5.77-1.92-7.93-4.07h.02ZM235.59,66.85c-.66.66-1.39,1.24-2.16,1.77l-9.64-9.66,12.26-12.26c2.53,2.77,3.9,6.4,3.82,10.15-.08,3.75-1.61,7.33-4.26,9.98h0l-.02.02Z"/>
    </g>
  </g>
</svg>