<?xml version="1.0" encoding="UTF-8"?>
<svg id="Layer_1" xmlns="http://www.w3.org/2000/svg" version="1.1" viewBox="0 0 360 288">
  <!-- Generator: Adobe Illustrator 29.8.2, SVG Export Plug-In . SVG Version: 2.1.1 Build 3)  -->
  <defs>
    <style>
      .st0 {
        fill: #ff6c37;
      }

      .st1 {
        fill: #fff;
      }
    </style>
  </defs>
  <g>
    <path class="st1" d="M51.5,236.5c-2-.9-4.3-1.4-6.9-1.4h-11.7c-.7,0-1.3.3-1.8.7-.5.4-.8,1-.8,1.6v41.6c0,.8.4,1.4,1.1,1.8.6.4,1.3.5,2,.5s1.4-.2,2-.5c.7-.4,1-1,1-1.8v-15.5h7.9c2.6,0,4.9-.5,7-1.4,2.1-.9,3.8-2.4,5-4.5,1.2-2,1.8-4.7,1.8-8.1v-.6c0-3.3-.6-6-1.8-8-1.2-2-2.9-3.5-4.9-4.4h0ZM36.5,240.8h7.9c2.4,0,4.3.7,5.7,2,1.3,1.3,2,3.4,2,6.3v.7c0,2.8-.7,4.9-2,6.3-1.3,1.3-3.2,2-5.7,2h-7.9v-17.3h0Z"/>
    <path class="st1" d="M94.9,236.5c-2.1-.9-4.4-1.4-7-1.4s-4.9.5-7,1.4c-2.1.9-3.8,2.4-5,4.5-1.2,2-1.8,4.8-1.8,8.1v18.6c0,3.4.6,6.1,1.8,8.1,1.2,2,2.9,3.5,5,4.5,2.1.9,4.4,1.4,7,1.4s4.9-.5,7-1.4c2.1-.9,3.8-2.4,5-4.5,1.2-2,1.8-4.8,1.8-8.1v-18.6c0-3.4-.6-6.1-1.8-8.1-1.2-2-2.9-3.5-5-4.5h0ZM87.9,240.8c2.4,0,4.3.7,5.7,2,1.3,1.3,2,3.4,2,6.3v18.6c0,2.9-.7,5-2,6.3-1.3,1.3-3.2,2-5.7,2s-4.3-.7-5.6-2c-1.3-1.3-2-3.4-2-6.3v-18.6c0-2.9.7-5,2-6.3s3.2-2,5.6-2h0Z"/>
    <path class="st1" d="M141.3,258.2c-1.2-1-2.6-1.9-4.1-2.6-1.4-.7-2.9-1.3-4.4-1.8-1.4-.5-2.7-1.1-3.9-1.7-1.1-.6-2.1-1.3-2.8-2.2-.7-.9-1-2-1-3.4s.3-2.6,1-3.5c.7-.9,1.7-1.5,2.9-1.9,1.2-.4,2.6-.6,4-.6s3.1.2,4.1.6c1.1.4,1.9.8,2.5,1.1.7.4,1.4.7,1.9.7s1.2-.2,1.6-.7c.4-.4.6-.8.8-1.3.2-.5.3-.9.3-1.3,0-.9-.4-1.6-1.2-2.2-.7-.6-1.7-1-2.9-1.3-1.1-.3-2.3-.6-3.6-.8-1.3-.2-2.5-.2-3.6-.2s-3.2.2-4.8.5c-1.6.4-3.2,1-4.6,1.9-1.4.9-2.6,2.1-3.4,3.7s-1.3,3.5-1.3,5.9.4,4.1,1.2,5.5c.8,1.5,1.8,2.7,3.1,3.6,1.2.9,2.6,1.7,4.1,2.3,1.5.6,2.9,1.2,4.3,1.8,1.4.6,2.7,1.2,3.9,1.9,1.1.7,2.1,1.6,2.8,2.6.7,1,1,2.4,1,4.1s-.3,3-1,4c-.7,1-1.6,1.8-2.8,2.4-1.2.5-2.7.8-4.3.8s-3.2-.2-4.3-.7c-1.1-.5-2-1-2.7-1.7-.7-.7-1.3-1.3-1.8-1.7-.6-.6-1.2-.9-1.8-.9s-1,.2-1.4.6c-.4.4-.7.8-1,1.2-.3.5-.4,1-.4,1.5,0,1,.6,2.1,1.8,3.3,1.1,1.1,2.7,2.1,4.7,3s4.4,1.2,7.1,1.2,5.1-.5,7.2-1.4c2.1-1,3.8-2.5,5-4.5,1.2-2,1.8-4.5,1.8-7.6s-.4-4.5-1.2-6.2c-.8-1.6-1.8-3-3.1-4h0Z"/>
    <path class="st1" d="M186,235.2h-25.2c-.8,0-1.4.3-1.8,1-.3.6-.5,1.2-.5,1.9s.2,1.4.6,2c.4.6,1,1,1.7,1h9.5v38c0,.8.4,1.4,1.1,1.8.6.4,1.3.5,2,.5s1.4-.2,2-.5c.7-.4,1.1-1,1.1-1.8v-38h9.5c.8,0,1.4-.3,1.8-1,.3-.6.5-1.2.5-1.9s-.2-1.3-.5-1.9c-.4-.6-1-1-1.8-1h0Z"/>
    <path class="st1" d="M236.6,235.8c-.6-.4-1.3-.6-2.1-.6s-1.3.1-1.9.4c-.5.3-1,.7-1.4,1.2-.4.5-.8,1.1-1.3,1.9l-9.3,17.8-9.3-17.8c-.4-.8-.8-1.4-1.2-1.9-.4-.5-.9-.9-1.4-1.2-.5-.3-1.2-.4-1.9-.4s-1.4.2-2,.6c-.7.5-1.1,1.3-1.1,2.4v40.8c0,.8.4,1.4,1.1,1.8.6.4,1.3.5,2,.5s1.4-.2,2-.5c.7-.4,1.1-1,1.1-1.8v-30.7l8.4,16.1c.3.6.7,1,1.1,1.3.4.2.8.4,1.2.4s.9-.1,1.3-.4c.4-.3.8-.7,1.1-1.2l8.5-15.9v30.5c0,.8.4,1.4,1.1,1.8.6.4,1.3.5,2,.5s1.4-.2,2-.5c.7-.4,1.1-1,1.1-1.8v-40.8c0-1.1-.3-1.9-1-2.4h0Z"/>
    <path class="st1" d="M273.3,236.9c-.2-.7-.7-1.3-1.4-1.6s-1.4-.5-2.3-.5-1.5.2-2.2.5c-.8.4-1.2.9-1.4,1.7l-12.7,41.1h0c0,.2,0,.4,0,.6,0,.5.2,1,.6,1.4.4.4.8.7,1.4.9.6.2,1.1.3,1.6.3s1.1-.1,1.5-.3c.5-.2.8-.6,1-1.2l2.6-8.9h15.5l2.7,8.9c.2.5.5.9.9,1.2.4.2.9.3,1.4.3s1.1-.1,1.6-.4,1-.5,1.4-.9c.5-.4.7-.9.7-1.5s0-.4-.2-.6l-12.6-41.1h0ZM263.3,265.7l6.3-21.1,6.3,21.1h-12.5,0Z"/>
    <path class="st1" d="M328.6,235.7c-.6-.3-1.3-.5-2-.5s-1.4.2-2,.5c-.7.4-1.1,1-1.1,1.8v29.6l-14.4-28.3c-.4-.8-.8-1.4-1.2-1.9-.4-.5-.9-.9-1.4-1.2-.5-.3-1.2-.4-1.9-.4s-1.4.1-2,.4c-.7.4-1.1,1-1.1,1.8v41.5c0,.8.4,1.4,1.1,1.8.6.4,1.3.5,2,.5s1.4-.2,2-.5c.7-.4,1-1,1-1.8v-29.6l15.2,29.4c.4.7.9,1.3,1.5,1.8.6.5,1.4.8,2.1.8s1.4-.2,2-.5c.7-.4,1-1,1-1.8v-41.6c0-.8-.4-1.4-1.1-1.8h0Z"/>
  </g>
  <g>
    <circle class="st1" cx="179.5" cy="103.1" r="87.3"/>
    <g>
      <path class="st1" d="M180,190.4c48.8,0,88.3-39.5,88.3-88.3S228.8,13.8,180,13.8s-88.3,39.5-88.3,88.3,39.5,88.3,88.3,88.3h0Z"/>
      <path class="st0" d="M234.9,54.3c-.1,0-.2.2-.3.3-.1,0-.2.2-.2.4s0,.3,0,.4c0,.2,0,.3.1.4.3.6.4,1.2.3,1.9,0,.7-.3,1.2-.8,1.8,0,.1-.2.2-.2.4,0,.1,0,.3,0,.4s0,.3.1.4c0,.1.1.2.3.3.1,0,.2.2.4.2.1,0,.3,0,.4,0s.3,0,.4-.1c.1,0,.2-.2.3-.3.7-.8,1.1-1.8,1.2-2.9.1-1.1,0-2.2-.5-3.1,0-.1-.1-.2-.3-.3-.1,0-.2-.2-.4-.2-.1,0-.3,0-.4,0-.1,0-.3,0-.4.1h0s0,0,0,0Z"/>
      <path class="st0" d="M192.2,6.9C139.7.2,91.6,37.3,84.9,89.9c-6.8,52.6,30.4,100.6,82.9,107.3,52.6,6.8,100.6-30.4,107.4-82.9,6.8-52.5-30.4-100.6-82.9-107.3h0ZM212,66.8c-1.8,0-3.5.8-4.7,2l-35.6,35.6-7.6-7.6c35.1-35,41.4-35.3,47.9-30h0ZM173.1,105.7l35.5-35.5c.9-.9,2.2-1.4,3.5-1.4s2.6.5,3.5,1.4c.5.5.9,1.1,1.1,1.7s.4,1.3.3,2c0,.7-.2,1.3-.5,1.9s-.7,1.2-1.2,1.6l-37.6,33-4.7-4.7h0ZM175.7,111.2l-8.8,1.9c-.1,0-.2,0-.3,0-.1,0-.2-.1-.2-.2,0,0,0-.2,0-.3,0,0,0-.2.1-.3l5.2-5.2,4.1,4.1h0s0,0,0,0ZM153.3,107.5l9.4-9.4,7,7-15.8,3.4c-.1,0-.3,0-.4,0s-.2-.2-.3-.3c0-.1,0-.2,0-.4,0-.1,0-.2.2-.4h0s0,0,0,0ZM124.2,156c-.1,0-.2,0-.3-.1,0,0-.2-.2-.2-.3,0-.1,0-.2,0-.3s0-.2.2-.3l7.6-7.6,9.8,9.8-17-1.2h0ZM143.6,145.9h0c-.4.2-.6.5-.8.9s-.2.8-.1,1.2l1.6,6.9c0,.2,0,.4,0,.6,0,.2-.2.4-.4.5-.2.1-.4.1-.6.1s-.4-.1-.6-.3l-9.8-9.8,30.1-30.1,14.6-3.1,7,7c-10,8.8-23.8,17.6-40.8,26.1h0ZM185.8,118.5c-.8-.8-2.7-2.7-6.7-6.7l37.6-33c.4-.3.7-.7.9-1-1.2,10.8-16.2,26-31.8,40.7h0ZM215,66.8c-2.6-2.7-4.2-6.2-4.2-10,0-3.8,1.3-7.4,3.8-10.1,2.5-2.8,6-4.5,9.8-4.7,3.7-.2,7.4,1,10.3,3.3l-12.9,12.9c-.2.2-.3.4-.3.7s.1.5.3.7l10,10c-2.7,1.4-5.8,1.8-8.8,1.3-3-.5-5.8-1.9-7.9-4.1h0,0ZM235.6,66.8c-.7.7-1.4,1.2-2.2,1.8l-9.6-9.7,12.3-12.3c2.5,2.8,3.9,6.4,3.8,10.2,0,3.8-1.6,7.3-4.3,10h0Z"/>
    </g>
  </g>
</svg>